# AST/ASF file generated using VICON BodyLanguage
# -----------------------------------------------
:version 1.10
:name VICON
:units
  mass 1.0
  length 0.45
  angle deg
:documentation
   .ast/.asf automatically generated from VICON data using
   VICON BodyBuilder and BodyLanguage model FoxedUp or BRILLIANT.MOD
:root
   order TX TY TZ RX RY RZ
   axis XYZ
   position 0 0 0  
   orientation 0 0 0 
:bonedata
  begin
     id 1 
     name lhipjoint
     direction 0.621036 -0.695554 0.361275 
     length 2.46325 
     axis 0 0 0  XYZ
  end
  begin
     id 2 
     name lfemur
     direction 0.34202 -0.939693 0  
     length 6.54784  
     axis 0 0 20  XYZ
    dof rx ry rz
    limits (-160.0 20.0)
           (-70.0 70.0)
           (-60.0 70.0)
  end
  begin
     id 3 
     name ltibia
     direction 0.34202 -0.939693 0   
     length 7.84737   
     axis 0 0 20   XYZ
    dof rx
    limits (-10.0 170.0)
  end
  begin
     id 4 
     name lfoot
     direction 0.0790693 -0.217241 0.97291   
     length 2.59747   
     axis -90 7.62852e-016 20   XYZ
    dof rx rz
    limits (-45.0 90.0)
           (-70.0 20.0)
  end
  begin
     id 5 
     name ltoes
     direction 1.53572e-011 -4.21898e-011 1   
     length 1.29919   
     axis -90 7.62852e-016 20   XYZ
    dof rx
    limits (-90.0 20.0)
  end
  begin
     id 6 
     name rhipjoint
     direction -0.602353 -0.708375 0.367935   
     length 2.41867  
     axis 0 0 0  XYZ 
  end
  begin
     id 7 
     name rfemur
     direction -0.34202 -0.939693 0   
     length 6.92065   
     axis 0 0 -20   XYZ
    dof rx ry rz
    limits (-160.0 20.0)
           (-70.0 70.0)
           (-70.0 60.0)
  end
  begin
     id 8 
     name rtibia
     direction -0.34202 -0.939693 0   
     length 7.88883   
     axis 0 0 -20   XYZ
    dof rx
    limits (-10.0 170.0)
 end
 begin
     id 9 
     name rfoot
     direction -0.0768692 -0.211196 0.974416   
     length 2.43714  
     axis -90 -7.62852e-016 -20   XYZ
    dof rx rz
    limits (-45.0 90.0)
           (-20.0 70.0)
  end
  begin
     id 10 
     name rtoes
     direction -1.53575e-011 -4.21933e-011 1   
     length 1.22113   
     axis -90 -7.62852e-016 -20   XYZ
    dof rx
    limits (-90.0 20.0)
  end
  begin
     id 11 
     name lowerback
     direction 0.0197937 0.98943 -0.143655   
     length 2.16931   
     axis 0 0 0   XYZ
    dof rx ry rz
    limits (-20.0 45.0)
           (-30.0 30.0)
           (-30.0 30.0)
  end
  begin
     id 12 
     name upperback
     direction -0.00183968 0.999975 0.00684288   
     length 2.17221   
     axis 0 0 0   XYZ
    dof rx ry rz
    limits (-20.0 45.0)
           (-30.0 30.0)
           (-30.0 30.0)
  end
  begin
     id 13 
     name thorax
     direction -0.00950244 0.997208 0.0740685   
     length 2.22549   
     axis 0 0 0   XYZ
    dof rx ry rz
    limits (-20.0 45.0)
           (-30.0 30.0)
           (-30.0 30.0)
  end
  begin
     id 14 
     name lowerneck
     direction 0.0218238 0.996215 0.0841425   
     length 1.77269   
     axis 0 0 0   XYZ
    dof rx ry rz
    limits (-20.0 45.0)
           (-30.0 30.0)
           (-30.0 30.0)
  end
  begin
     id 15 
     name upperneck
     direction -0.00430652 0.994214 -0.107332   
     length 1.76534   
     axis 0 0 0   XYZ
    dof rx ry rz
    limits (-20.0 45.0)
           (-30.0 30.0)
           (-30.0 30.0)
  end
  begin
     id 16
     name head
     direction -0.00328946 0.998959 -0.0454998  
     length 1.82634  
     axis 0 0 0   XYZ
    dof rx ry rz
    limits (-20.0 45.0)
           (-30.0 30.0)
           (-30.0 30.0)
  end
  begin
     id 17 
     name lclavicle
     direction 0.970962 0.239191 0.00450212  
     length 3.84872  
     axis 0 0 0   XYZ
    dof ry rz
    limits (-20.0 10.0)
           (0.0 20.0)
  end
  begin
     id 18 
     name lhumerus
     direction 1 -4.48966e-011 5.74696e-028   
     length 5.22771   
     axis 180 -30 -90   XYZ
    dof rx ry rz
    limits (-60.0 90.0)
           (-90.0 90.0)
           (-90.0 90.0)
  end
  begin
     id 19
     name lradius
     direction 1 -4.4896e-011 4.25109e-027   
     length 3.45251   
     axis 180 -30 -90   XYZ
    dof rx
    limits (-10.0 170.0)
  end
  begin
     id 20
     name lwrist
     direction 1 -4.48971e-011 1.15382e-027   
     length 1.72626   
     axis -5.52449e-016 90 90   XYZ
    dof ry
    limits (-180.0 0.0)
 end
  begin
     id 21 
     name lhand
     direction 1 -4.49034e-011 2.30765e-027   
     length 0.552119   
     axis -1.47248e-015 90 90   XYZ
    dof rx rz
    limits (-90.0 90.0)
           (-45.0 45.0)
  end
  begin
     id 22 
     name lfingers
     direction 1 -4.48951e-011 4.61529e-027   
     length 0.445133   
     axis -2.94495e-015 90 90   XYZ
    dof rx
    limits (0.0 90.0)
  end
  begin
     id 23
     name lthumb
     direction 0.707107 -6.34991e-011 0.707107   
     length 0.639124   
     axis -90 45 2.85299e-015   XYZ
    dof rx rz
    limits (-45.0 45.0)
           (-45.0 45.0)
  end
  begin
     id 24 
     name rclavicle
     direction -0.97424 0.222511 -0.0366699   
     length 3.73439  
     axis 0 0 0   XYZ 
    dof ry rz
    limits (-10.0 20.0)
           (-20.0 0.0)
  end
  begin
     id 25 
     name rhumerus
     direction -1 -4.48956e-011 -4.97258e-028  
     length 5.2398   
     axis 180 30 90   XYZ
    dof rx ry rz
    limits (-90.0 60.0)
           (-90.0 90.0)
           (-90.0 90.0)
  end
  begin
     id 26 
     name rradius
     direction -1 -4.4897e-011 -1.72611e-027   
     length 3.48042   
     axis 180 30 90   XYZ
    dof rx
    limits (-10.0 170.0)
  end
  begin
     id 27 
     name rwrist
     direction -1 -4.48976e-011 1.15382e-027   
     length 1.74021   
     axis -5.52449e-016 -90 -90   XYZ
    dof ry
    limits (-180.0 0.0)
  end
  begin
     id 28
     name rhand
     direction -1 -4.48963e-011 2.30765e-027   
     length 0.618713   
     axis -1.47248e-015 -90 -90   XYZ
    dof rx rz
    limits (-90.0 90.0)
           (-45.0 45.0)
  end
  begin
     id 29
     name rfingers
     direction -1 -4.4888e-011 4.61529e-027   
     length 0.498823   
     axis -2.94495e-015 -90 -90   XYZ
    dof rx
    limits (0.0 90.0)
  end
  begin
     id 30
     name rthumb
     direction -0.707107 -6.34968e-011 0.707107   
     length 0.716213   
     axis -90 -45 -2.85299e-015   XYZ
    dof rx rz
    limits (-45.0 45.0)
           (-45.0 45.0)
  end
:hierarchy
  begin
    root lhipjoint rhipjoint lowerback
    lhipjoint lfemur
    lfemur ltibia
    ltibia lfoot
    lfoot ltoes
    rhipjoint rfemur
    rfemur rtibia
    rtibia rfoot
    rfoot rtoes
    lowerback upperback
    upperback thorax
    thorax lowerneck lclavicle rclavicle
    lowerneck upperneck
    upperneck head
    lclavicle lhumerus
    lhumerus lradius
    lradius lwrist
    lwrist lhand lthumb
    lhand lfingers
    rclavicle rhumerus
    rhumerus rradius
    rradius rwrist
    rwrist rhand rthumb
    rhand rfingers
  end

#!OML:ASF G:\JayActor3\Patient Classification 1\Patient 1\Session 5\male.ASF
:FULLY-SPECIFIED
:DEGREES
164
root -33.2581 14.3076 -6.87258 7.68431 -87.4017 7.11228
lowerback 30.9861 -0.607016 1.13533
upperback 7.62597 -1.1287 -0.0681484
thorax -8.37988 -0.830695 -0.276499
lowerneck -2.12305 0.451451 1.99144
upperneck -21.6616 0.0775943 0.613549
head -6.21509 -0.509575 -0.106624
rclavicle -4.47266e-015 5.61567e-015
rhumerus -17.0854 7.7454 -84.7214
rradius 47.6238
rwrist -7.62585
rhand -20.0944 -9.20765
rfingers 7.12502
rthumb 6.24872 -39.0955
lclavicle -4.47266e-015 5.61567e-015
lhumerus -17.6562 -9.061 83.4441
lradius 46.0057
lwrist 25.5028
lhand -18.429 13.4411
lfingers 7.12502
lthumb 7.85629 43.2751
rfemur -64.8362 -6.62332 25.2014
rtibia 84.0007
rfoot -34.2301 -9.53982
rtoes 5.67956
lfemur -64.3886 7.87522 -22.1014
ltibia 77.9915
lfoot -27.0392 7.63398
ltoes -6.10711
165
root -33.2601 14.3059 -6.87339 7.60832 -87.3999 7.1739
lowerback 30.983 -0.608453 1.12152
upperback 7.6201 -1.13479 -0.0750527
thorax -8.38524 -0.833143 -0.274028
lowerneck -2.12806 0.455552 1.97804
upperneck -21.6368 0.0872802 0.633368
head -6.20624 -0.504271 -0.0986143
rclavicle 1.53064e-014 2.06736e-014
rhumerus -17.0915 7.7207 -84.7387
rradius 47.5741
rwrist -7.61221
rhand -20.0924 -9.19276
rfingers 7.12502
rthumb 6.25064 -39.0805
lclavicle 1.53064e-014 2.06736e-014
lhumerus -17.6578 -9.03165 83.4265
lradius 45.9837
lwrist 25.4978
lhand -18.4333 13.4535
lfingers 7.12502
lthumb 7.85215 43.2877
rfemur -64.8245 -6.63539 25.2012
rtibia 84.0258
rfoot -34.256 -9.48994
rtoes 5.78823
lfemur -64.3801 7.8946 -22.1048
ltibia 78.0163
lfoot -27.051 7.62604
ltoes -6.13811
166
root -33.262 14.3042 -6.8742 7.54132 -87.3974 7.2248
lowerback 30.9799 -0.61041 1.10789
upperback 7.61591 -1.14165 -0.0818699
thorax -8.3886 -0.836006 -0.271301
lowerneck -2.13699 0.46005 1.96607
upperneck -21.606 0.0968423 0.648903
head -6.19478 -0.498647 -0.0922388
rclavicle 3.42904e-015 1.24737e-014
rhumerus -17.09 7.69969 -84.7566
rradius 47.5226
rwrist -7.5952
rhand -20.0933 -9.17991
rfingers 7.12502
rthumb 6.24972 -39.0677
lclavicle 3.42904e-015 1.24737e-014
lhumerus -17.6557 -9.00473 83.4083
lradius 45.9617
lwrist 25.4949
lhand -18.441 13.4629
lfingers 7.12502
lthumb 7.8447 43.2973
rfemur -64.812 -6.64475 25.2001
rtibia 84.051
rfoot -34.2805 -9.44073
rtoes 5.89443
lfemur -64.3713 7.91482 -22.1077
ltibia 78.0408
lfoot -27.0602 7.61564
ltoes -6.17383
167
root -33.2637 14.3026 -6.875 7.45898 -87.3942 7.29122
lowerback 30.9791 -0.611933 1.09495
upperback 7.61042 -1.14761 -0.0884648
thorax -8.39459 -0.83843 -0.269
lowerneck -2.15164 0.463937 1.95605
upperneck -21.5671 0.104466 0.657805
head -6.17981 -0.493405 -0.0882611
rclavicle 2.78299e-015 1.6201e-014
rhumerus -17.0874 7.67725 -84.7732
rradius 47.473
rwrist -7.5747
rhand -20.0946 -9.16615
rfingers 7.12502
rthumb 6.24852 -39.054
lclavicle 2.78299e-015 1.6201e-014
lhumerus -17.6537 -8.9825 83.3927
lradius 45.9425
lwrist 25.4909
lhand -18.4469 13.4776
lfingers 7.12502
lthumb 7.83902 43.3123
rfemur -64.8 -6.65141 25.1968
rtibia 84.0749
rfoot -34.3011 -9.39722
rtoes 6.00166
lfemur -64.3625 7.93433 -22.1114
ltibia 78.0637
lfoot -27.0701 7.59793
ltoes -6.18734
168
root -33.2653 14.3011 -6.87575 7.42737 -87.3881 7.30938
lowerback 30.9771 -0.614748 1.08669
upperback 7.60387 -1.15354 -0.0941689
thorax -8.40125 -0.840843 -0.268426
lowerneck -2.17111 0.46729 1.95132
upperneck -21.5242 0.109996 0.658729
head -6.16272 -0.48894 -0.0876424
rclavicle -1.73937e-015 -7.50412e-015
rhumerus -17.0804 7.65596 -84.7881
rradius 47.4214
rwrist -7.55403
rhand -20.1013 -9.14822
rfingers 7.12502
rthumb 6.24205 -39.0363
lclavicle -1.73937e-015 -7.50412e-015
lhumerus -17.65 -8.96367 83.3794
lradius 45.9221
lwrist 25.4848
lhand -18.4481 13.4929
lfingers 7.12502
lthumb 7.83787 43.3276
rfemur -64.7901 -6.65607 25.1945
rtibia 84.097
rfoot -34.3183 -9.35985
rtoes 6.10548
lfemur -64.3572 7.9516 -22.1134
ltibia 78.0865
lfoot -27.0794 7.57454
ltoes -6.18543
169
root -33.2668 14.2997 -6.87647 7.54407 -87.3797 7.18352
lowerback 30.9716 -0.618998 1.08571
upperback 7.59509 -1.15861 -0.0981905
thorax -8.40885 -0.842846 -0.270523
lowerneck -2.19381 0.470876 1.94982
upperneck -21.4772 0.115335 0.656084
head -6.14377 -0.484449 -0.0887175
rclavicle -4.96962e-015 -6.16232e-015
rhumerus -17.0713 7.63577 -84.8031
rradius 47.3685
rwrist -7.53522
rhand -20.1129 -9.1364
rfingers 7.12502
rthumb 6.23085 -39.0248
lclavicle -4.96962e-015 -6.16232e-015
lhumerus -17.6482 -8.94917 83.3673
lradius 45.9041
lwrist 25.4763
lhand -18.4495 13.5025
lfingers 7.12502
lthumb 7.83652 43.3373
rfemur -64.7833 -6.65891 25.1988
rtibia 84.1151
rfoot -34.3332 -9.32561
rtoes 6.21065
lfemur -64.3571 7.96823 -22.1089
ltibia 78.1092
lfoot -27.089 7.54383
ltoes -6.16513
170
root -33.2683 14.2986 -6.87697 7.79327 -87.368 6.92829
lowerback 30.9624 -0.626251 1.09491
upperback 7.58594 -1.1642 -0.101408
thorax -8.41524 -0.845178 -0.277482
lowerneck -2.21305 0.474918 1.95456
upperneck -21.4361 0.120272 0.646662
head -6.12731 -0.480336 -0.0929557
rclavicle -8.54774e-015 -3.39922e-014
rhumerus -17.0584 7.61832 -84.8171
rradius 47.3157
rwrist -7.5189
rhand -20.1203 -9.14509
rfingers 7.12502
rthumb 6.22367 -39.0337
lclavicle -8.54774e-015 -3.39922e-014
lhumerus -17.6449 -8.935 83.3559
lradius 45.8873
lwrist 25.4646
lhand -18.4461 13.5123
lfingers 7.12502
lthumb 7.83976 43.347
rfemur -64.777 -6.663 25.2081
rtibia 84.1286
rfoot -34.3465 -9.29161
rtoes 6.30793
lfemur -64.3606 7.98185 -22.0993
ltibia 78.1315
lfoot -27.0992 7.51514
ltoes -6.14638
171
root -33.27 14.2976 -6.87738 8.10341 -87.355 6.61377
lowerback 30.9493 -0.634573 1.10657
upperback 7.576 -1.17017 -0.103706
thorax -8.42067 -0.847663 -0.284743
lowerneck -2.22471 0.481177 1.96116
upperneck -21.4024 0.127859 0.633502
head -6.1145 -0.474968 -0.098786
rclavicle -3.18055e-014 -3.25013e-014
rhumerus -17.0467 7.60581 -84.8306
rradius 47.2652
rwrist -7.50737
rhand -20.1296 -9.16257
rfingers 7.12502
rthumb 6.21466 -39.0514
lclavicle -3.18055e-014 -3.25013e-014
lhumerus -17.6429 -8.92065 83.3449
lradius 45.8727
lwrist 25.4538
lhand -18.4398 13.5195
lfingers 7.12502
lthumb 7.84586 43.354
rfemur -64.7695 -6.66804 25.2191
rtibia 84.1382
rfoot -34.3614 -9.24867
rtoes 6.40602
lfemur -64.3649 7.99482 -22.0874
ltibia 78.1535
lfoot -27.1102 7.48748
ltoes -6.13118
172
root -33.2717 14.2968 -6.87768 8.47322 -87.3407 6.24026
lowerback 30.9323 -0.644593 1.12077
upperback 7.56712 -1.1775 -0.105201
thorax -8.42307 -0.850825 -0.292148
lowerneck -2.23758 0.487776 1.96881
upperneck -21.3702 0.135825 0.620634
head -6.10193 -0.469612 -0.104702
rclavicle -3.03147e-015 3.97569e-016
rhumerus -17.0336 7.60288 -84.8434
rradius 47.2175
rwrist -7.50429
rhand -20.1375 -9.18597
rfingers 7.12502
rthumb 6.20704 -39.075
lclavicle -3.03147e-015 3.97569e-016
lhumerus -17.6391 -8.9039 83.3331
lradius 45.8592
lwrist 25.4434
lhand -18.4314 13.5215
lfingers 7.12502
lthumb 7.85398 43.3556
rfemur -64.7612 -6.67581 25.2316
rtibia 84.1447
rfoot -34.3756 -9.19603
rtoes 6.50783
lfemur -64.3684 8.00629 -22.0727
ltibia 78.1747
lfoot -27.1214 7.46639
ltoes -6.1314
173
root -33.2736 14.2958 -6.87794 8.79554 -87.3249 5.91475
lowerback 30.9157 -0.654765 1.13231
upperback 7.5573 -1.18568 -0.10621
thorax -8.42674 -0.854309 -0.297134
lowerneck -2.25529 0.495015 1.97014
upperneck -21.3361 0.145116 0.61282
head -6.08797 -0.463482 -0.107998
rclavicle -2.9122e-014 -3.10601e-014
rhumerus -17.024 7.60472 -84.8535
rradius 47.1779
rwrist -7.50469
rhand -20.1384 -9.20907
rfingers 7.12502
rthumb 6.20621 -39.0982
lclavicle -2.9122e-014 -3.10601e-014
lhumerus -17.6379 -8.88718 83.3232
lradius 45.852
lwrist 25.4366
lhand -18.4224 13.5203
lfingers 7.12502
lthumb 7.8627 43.354
rfemur -64.7541 -6.68317 25.2396
rtibia 84.152
rfoot -34.393 -9.13117
rtoes 6.63611
lfemur -64.3726 8.01445 -22.0599
ltibia 78.1962
lfoot -27.1344 7.44749
ltoes -6.12736
174
root -33.2755 14.2946 -6.87827 9.01897 -87.3081 5.68717
lowerback 30.9011 -0.663778 1.1375
upperback 7.5469 -1.19424 -0.106972
thorax -8.43193 -0.857874 -0.297991
lowerneck -2.28709 0.499883 1.96699
upperneck -21.2927 0.151365 0.610382
head -6.06868 -0.458757 -0.108714
rclavicle 1.49089e-016 1.20265e-014
rhumerus -17.0172 7.61048 -84.8605
rradius 47.1443
rwrist -7.50913
rhand -20.1374 -9.2175
rfingers 7.12502
rthumb 6.20715 -39.1066
lclavicle 1.49089e-016 1.20265e-014
lhumerus -17.6381 -8.87269 83.316
lradius 45.8468
lwrist 25.4359
lhand -18.4196 13.5162
lfingers 7.12502
lthumb 7.86534 43.3499
rfemur -64.7482 -6.69137 25.2419
rtibia 84.1611
rfoot -34.4109 -9.06
rtoes 6.7785
lfemur -64.3742 8.01926 -22.0507
ltibia 78.2167
lfoot -27.1447 7.43731
ltoes -6.14455
175
root -33.2775 14.2933 -6.8786 9.11288 -87.2901 5.58906
lowerback 30.8902 -0.67145 1.13585
upperback 7.53485 -1.20304 -0.107898
thorax -8.44071 -0.861418 -0.294906
lowerneck -2.33067 0.503267 1.96201
upperneck -21.2432 0.155456 0.610687
head -6.04547 -0.455103 -0.10816
rclavicle 1.27719e-014 1.63003e-014
rhumerus -17.0163 7.6152 -84.8645
rradius 47.1225
rwrist -7.51444
rhand -20.1291 -9.22189
rfingers 7.12502
rthumb 6.21518 -39.1107
lclavicle 1.27719e-014 1.63003e-014
lhumerus -17.6422 -8.86094 83.3124
lradius 45.8485
lwrist 25.4352
lhand -18.424 13.5044
lfingers 7.12502
lthumb 7.86116 43.3383
rfemur -64.745 -6.70047 25.2372
rtibia 84.1733
rfoot -34.4293 -8.99258
rtoes 6.9305
lfemur -64.3745 8.01962 -22.0474
ltibia 78.2357
lfoot -27.1578 7.42675
ltoes -6.1476
176
root -33.2793 14.292 -6.87896 9.11652 -87.2706 5.5812
lowerback 30.8856 -0.677421 1.13136
upperback 7.52014 -1.21035 -0.109101
thorax -8.45539 -0.864171 -0.290904
lowerneck -2.38558 0.503841 1.95323
upperneck -21.1893 0.156001 0.616948
head -6.01904 -0.453329 -0.104918
rclavicle -8.39865e-015 3.08116e-015
rhumerus -17.0224 7.61642 -84.8647
rradius 47.1105
rwrist -7.52112
rhand -20.1178 -9.21438
rfingers 7.12502
rthumb 6.22613 -39.1029
lclavicle -8.39865e-015 3.08116e-015
lhumerus -17.6492 -8.8577 83.3126
lradius 45.8542
lwrist 25.4358
lhand -18.4265 13.4937
lfingers 7.12502
lthumb 7.85871 43.3276
rfemur -64.7439 -6.70975 25.2293
rtibia 84.1885
rfoot -34.447 -8.9366
rtoes 7.06778
lfemur -64.3744 8.01548 -22.0478
ltibia 78.2531
lfoot -27.1704 7.41704
ltoes -6.14457
177
root -33.2809 14.2907 -6.87931 9.09176 -87.2513 5.6026
lowerback 30.8824 -0.681124 1.12511
upperback 7.50507 -1.21523 -0.109646
thorax -8.4711 -0.865764 -0.286006
lowerneck -2.44477 0.503253 1.94333
upperneck -21.1405 0.154659 0.624844
head -5.9935 -0.452773 -0.100856
rclavicle 3.23025e-015 2.65378e-014
rhumerus -17.0325 7.61469 -84.8609
rradius 47.1106
rwrist -7.52757
rhand -20.1084 -9.19761
rfingers 7.12502
rthumb 6.2352 -39.0859
lclavicle 3.23025e-015 2.65378e-014
lhumerus -17.6565 -8.85986 83.3166
lradius 45.8657
lwrist 25.435
lhand -18.4269 13.4859
lfingers 7.12502
lthumb 7.85833 43.3198
rfemur -64.7443 -6.71867 25.224
rtibia 84.2058
rfoot -34.4617 -8.91361
rtoes 7.13372
lfemur -64.3747 8.00925 -22.0491
ltibia 78.2686
lfoot -27.1815 7.40694
ltoes -6.13687
178
root -33.2824 14.2896 -6.87957 9.06007 -87.2325 5.63121
lowerback 30.8813 -0.683645 1.1201
upperback 7.49007 -1.21823 -0.109736
thorax -8.48774 -0.866513 -0.281967
lowerneck -2.49939 0.502088 1.93336
upperneck -21.1037 0.15226 0.632864
head -5.97263 -0.453137 -0.0966445
rclavicle -1.25731e-014 -3.83157e-014
rhumerus -17.0457 7.61057 -84.8538
rradius 47.1247
rwrist -7.53477
rhand -20.1009 -9.18762
rfingers 7.12502
rthumb 6.24237 -39.0756
lclavicle -1.25731e-014 -3.83157e-014
lhumerus -17.6627 -8.86482 83.3238
lradius 45.8832
lwrist 25.4324
lhand -18.423 13.4846
lfingers 7.12502
lthumb 7.86211 43.3185
rfemur -64.7446 -6.7274 25.223
rtibia 84.2253
rfoot -34.4714 -8.92979
rtoes 7.10768
lfemur -64.3762 8.00082 -22.0503
ltibia 78.2827
lfoot -27.1897 7.39816
ltoes -6.12782
